<?xml version="1.0" standalone="no"?><svg xmlns="http://www.w3.org/2000/svg" viewBox="0 0 1440 320"><path fill="#2dba4e" fill-opacity="1" d="M0,64L20,85.3C40,107,80,149,120,144C160,139,200,85,240,90.7C280,96,320,160,360,186.7C400,213,440,203,480,213.3C520,224,560,256,600,234.7C640,213,680,139,720,133.3C760,128,800,192,840,202.7C880,213,920,171,960,154.7C1000,139,1040,149,1080,138.7C1120,128,1160,96,1200,106.7C1240,117,1280,171,1320,186.7C1360,203,1400,181,1420,170.7L1440,160L1440,320L1420,320C1400,320,1360,320,1320,320C1280,320,1240,320,1200,320C1160,320,1120,320,1080,320C1040,320,1000,320,960,320C920,320,880,320,840,320C800,320,760,320,720,320C680,320,640,320,600,320C560,320,520,320,480,320C440,320,400,320,360,320C320,320,280,320,240,320C200,320,160,320,120,320C80,320,40,320,20,320L0,320Z"></path></svg>